<svg width="20" height="21" fill="none" xmlns="http://www.w3.org/2000/svg"><path d="M10.574.502c.694-.003 1.387.005 2.08.022l.184.007c.213.008.423.018.676.03 1.011.05 1.7.218 2.306.465a4.605 4.605 0 011.683 1.154A4.94 4.94 0 0118.6 3.951c.234.637.394 1.364.441 2.428.012.266.021.488.029.712l.005.194c.017.73.025 1.459.022 2.188l.001.746v1.31c.003.73-.005 1.46-.022 2.189l-.005.194c-.008.224-.017.445-.029.712-.047 1.064-.209 1.79-.442 2.427a4.916 4.916 0 01-1.096 1.772 4.652 4.652 0 01-1.683 1.152c-.605.247-1.295.415-2.306.465-.253.012-.463.022-.676.03l-.184.007a71.01 71.01 0 01-2.08.023H8.622a71.013 71.013 0 01-2.08-.023l-.184-.006a54.518 54.518 0 01-.676-.03c-1.01-.05-1.7-.22-2.306-.465a4.629 4.629 0 01-1.683-1.153A4.936 4.936 0 01.597 17.05c-.235-.637-.394-1.363-.442-2.427-.01-.238-.02-.475-.028-.712l-.005-.194a84.16 84.16 0 01-.024-2.19V9.474c-.002-.73.005-1.459.021-2.188l.007-.194c.007-.224.017-.446.028-.712.048-1.065.207-1.79.442-2.428a4.911 4.911 0 011.098-1.77 4.637 4.637 0 011.682-1.155C3.982.78 4.67.611 5.682.561l.676-.03.185-.005A71.346 71.346 0 018.62.501l1.953.001zm-.976 5a4.541 4.541 0 00-1.838.36 4.736 4.736 0 00-1.564 1.079 5.021 5.021 0 00-1.047 1.63 5.229 5.229 0 000 3.86 5.022 5.022 0 001.047 1.63c.448.466.98.833 1.564 1.08a4.54 4.54 0 001.838.36 4.63 4.63 0 003.358-1.465 5.136 5.136 0 001.392-3.535c0-1.326-.5-2.598-1.392-3.536a4.632 4.632 0 00-3.358-1.463zm0 2c.378-.007.754.065 1.106.212.352.148.672.367.943.646.27.28.484.613.631.98a3.139 3.139 0 010 2.322c-.146.367-.36.7-.63.98-.27.279-.591.499-.943.646a2.72 2.72 0 01-1.106.213 2.78 2.78 0 01-2.015-.879 3.082 3.082 0 01-.835-2.121c0-.796.3-1.559.835-2.121a2.78 2.78 0 012.015-.88l-.001.001zm4.987-3.5c-.307.013-.596.15-.809.383a1.286 1.286 0 00-.331.866c0 .323.119.633.331.866.213.233.502.37.809.383.315 0 .617-.132.84-.366.222-.235.347-.552.347-.884 0-.331-.125-.65-.347-.884a1.158 1.158 0 00-.84-.366v.002z" fill="#fff"/></svg>