<svg width="656" height="88" fill="none" xmlns="http://www.w3.org/2000/svg"><path fill-rule="evenodd" clip-rule="evenodd" d="M80.89 2.708l-8.239 7.987C65.081 3.616 55.994.076 45.391.076c-12.396 0-23.06 4.469-31.991 13.407C4.465 22.42 0 33.091 0 45.494 0 57.385 4.09 67.347 12.27 75.38s18.31 12.049 30.397 12.049c10.05 0 19.768-2.812 29.153-8.436l10.009 8.513v-25.78l16.528-19.1H41.444l18.486 19.1V66.1c-3.564 4.23-8.223 6.344-13.98 6.344-12.577 0-18.863-9.201-18.863-27.602 0-9.358 1.591-16.66 4.781-21.91 3.187-5.25 7.638-7.874 13.35-7.874 12.778 0 24.665 7.755 35.671 23.266V2.708zm91.057 1.009h-52.602l10.43 14.637-18.318 46.767-13.1 18.739h41.552l-13.427-16.448 1.988-5.521h25.616l2.02 5.521-15.447 16.448h113.79l-16.941-18.608v-12.15h11.225c5.075 0 8.309 1.722 9.705 5.166 2.233 5.439 4.746 13.97 7.543 25.592h32.734l-11.193-11.622c-2.188-8.252-4.493-14.207-6.917-17.863-2.421-3.656-5.9-6.462-10.432-8.417 13.378-2.698 20.068-9.13 20.068-19.296 0-5.278-1.693-9.921-5.077-13.928-3.384-4.008-7.794-6.599-13.232-7.772l-10.82-1.245-8.455.072h-55.942l16.944 18.727v42.736L196.715 83.86l-16.818-18.74-18.607-46.766 10.657-14.637zm-31.288 23.278l8.376 21.671h-16.232l7.856-21.671zm96.849-8.188V37.29h15.116l4.699-.117c5.101 0 7.653-2.915 7.653-8.743 0-3.795-.835-6.347-2.504-7.658-1.67-1.31-4.932-1.965-9.783-1.965h-15.181zm134.796-15.09h-52.599l10.427 14.637-18.315 46.767-13.102 18.739h41.554l-13.427-16.448 1.988-5.521h25.616l2.02 5.521-15.447 16.448h56.053l-16.815-18.74-18.61-46.767 10.657-14.637zm-31.285 23.278l8.376 21.671h-16.232l7.856-21.671zm59.696-23.278h38.89l27.163 43.29V22.41L450.726 3.717h44.703L479.427 22.41v61.45H456.86l-27.481-45.54v26.82l16.042 18.72h-44.706l16.005-18.72V22.41L400.715 3.717zm176.959 0h-77.058l-1.544 38.77 17.543-24.534h10.7V65.14l-16.804 18.72h57.267l-16.807-18.72V17.953h10.7l17.544 24.534-1.541-38.77zm28.359 16.431c-.204 2.694 1.162 4.017 3.568 5.852 2.353 1.792 10.905 4.031 19.022 6.157l.588.154c8.285 2.172 19.011 5.469 23.761 8.969C657.723 44.78 663 49.71 663 59.318c0 8.601-2.656 15.45-7.97 20.544-5.317 5.095-12.455 7.643-21.418 7.643-9.613 0-19.463-2.847-29.554-8.539l-11.53 7.671V46.896c3.963 8.12 9.412 14.462 16.349 19.025 6.937 4.563 14.596 6.845 22.972 6.845 8.809 0 12.732-2.138 13.213-6.334.347-3.018-1.308-4.088-2.811-5.059a27.807 27.807 0 01-.468-.306c-1.603-1.074-4.894-2.255-16.65-4.791-11.757-2.537-19.206-5.66-23.86-8.99-7.4-5.308-10.806-10.23-11.101-17.924-.352-9.136 2.484-16.309 7.453-21.5 4.968-5.19 11.813-7.786 20.536-7.786 8.4 0 15.932 2.077 22.6 6.231l1.851 1.165L655.05.608v33.564c-11.622-13.573-23.999-20.36-37.138-20.36-7.919 0-11.565 2.124-11.879 6.336z" fill="#fff"/></svg>