<svg width="225" height="33" fill="none" xmlns="http://www.w3.org/2000/svg"><path d="M25.436 5.385l-.467.5.476.445.467-.454-.476-.49zM28.207 2.7h.684V1.083l-1.16 1.125.476.49zm-22.7 3.624l.484.483-.484-.483zm-.38 20.819l.48-.488-.48.488zm20.03 1.215l.443-.521-.374-.318-.42.252.35.587zm3.366 2.863l-.443.521 1.127.959v-1.48h-.684zm0-8.671l-.517-.448-.167.193v.255h.684zm5.56-6.424l.517.447.979-1.131h-1.497v.684zm-19.143 0v-.684h-1.614l1.122 1.16.492-.476zm6.217 6.424h.684v-.277l-.192-.199-.492.476zm0 1.472l.523.44.162-.19v-.25h-.684zM11.72 9.5l.585.356-.585-.356zm16.488 5.178l-.558.396 1.242 1.75v-2.146h-.684zm12.933-11.64v-.684h-1.327l.77 1.081.557-.397zm17.693 0l.553.403.791-1.087h-1.344v.684zM44.649 7.961l.637.25.135-.345-.215-.302-.557.397zm-6.16 15.73l.56.392.047-.066.03-.076-.638-.25zm-4.407 6.303l-.56-.392-.752 1.076h1.312v-.684zm13.976 0v.684H49.5l-.912-1.117-.53.433zm-4.516-5.532l-.644-.232-.13.365.244.3.53-.433zm.669-1.857v-.684h-.481l-.163.452.644.232zm8.616 0l.642-.235-.164-.45h-.478v.685zm.679 1.857l.499.468.288-.307-.145-.396-.642.235zm-5.196 5.532l-.498-.468-1.083 1.152h1.581v-.684zm18.855 0v.684h1.533l-1.024-1.14-.51.456zm-5.657-6.303l-.636.253.046.114.081.09.51-.457zM55.25 7.961l-.553-.402-.222.305.14.35.635-.253zm-4.122 10.196v.684h.998l-.36-.93-.638.246zm-2.817-7.29l.638-.246-.658-1.704-.623 1.717.643.233zm-2.642 7.29l-.643-.233-.332.917h.975v-.684zM67.165 3.062v-.684h-1.541l1.034 1.143.507-.459zm5.7 6.3h.683v-.264l-.177-.196-.507.46zm13.116-6.3v.684h.006l-.006-.684zm2.844-.024l.078-.68-.041-.004h-.043l.006.684zm3.64.419l.144-.669-.033-.007-.033-.004-.079.68zm-.592 13.789l-.135-.67-2.144.431 2.008.867.27-.628zm3.509 2.83l-.57.379.57-.378zm2.326 6.009l-.66.175.045.172.123.128.492-.475zm3.765 3.909v.684h1.608l-1.115-1.159-.493.475zm-11.01 0l-.665.16.126.524h.539v-.684zm-2.537-8.608l-.634.257v.003l.634-.26zm-7.04-1.737v-.684h-.684v.684h.684zm0 4.086h-.684V24l.178.196.506-.46zm5.698 6.259v.684h1.548l-1.042-1.145-.506.461zm-19.419 0l-.506-.46-1.042 1.144h1.548v-.684zm5.7-6.259l.505.46.178-.195v-.265h-.684zm8.02-9.405h-.683v.684h.684v-.684zm0-6.217V7.43h-.683v.684h.684zm5.085 6.217v.684h.017l-.017-.684zm1.58-.04v-.683h-.016l.017.684zm1.733-5.515l-.423.538.422-.538zm19.25-5.737v-.684h-1.327l.77 1.08.557-.396zm17.692 0l.553.403.791-1.087h-1.344v.684zM112.04 7.961l.637.25.135-.345-.215-.302-.557.397zm-6.16 15.73l.561.392.046-.066.03-.076-.637-.25zm-4.407 6.303l-.561-.392-.752 1.076h1.313v-.684zm13.977 0v.684h1.441l-.911-1.117-.53.433zm-4.517-5.532l-.643-.232-.131.365.245.3.529-.433zm.669-1.857v-.684h-.48l-.163.452.643.232zm8.616 0l.643-.235-.165-.45h-.478v.685zm.68 1.857l.498.468.289-.307-.145-.396-.642.235zm-5.196 5.532l-.499-.468-1.082 1.152h1.581v-.684zm18.853 0v.684h1.533l-1.024-1.14-.509.456zm-5.655-6.303l-.636.253.045.114.082.09.509-.457zm-6.26-15.73l-.553-.402-.222.305.139.35.636-.253zm-4.121 10.196v.684h.998l-.36-.93-.638.246zm-2.817-7.29l.638-.246-.659-1.704-.622 1.717.643.233zm-2.642 7.29l-.643-.233-.333.917h.976v-.684zm35.801-15.119l.579-.364-.201-.32h-.378v.684zm-13.081 0v-.684h-1.486l.966 1.129.52-.445zm22.217 14.56l-.579.364 1.263 2.014v-2.378h-.684zm0-8.272h.684v-.253l-.165-.193-.519.446zm-5.396-6.288v-.684h-1.488l.969 1.13.519-.446zm15.036 0l.52.445.966-1.129h-1.486v.684zm-5.382 6.288l-.52-.445-.164.192v.253h.684zm0 20.668v.684h.684v-.684h-.684zm-7.59 0l-.586.354.199.33h.387v-.684zm-9.244-15.317l.586-.353-1.27-2.104v2.457h.684zm0 9.02h-.684v.254l.165.192.519-.445zm5.396 6.297v.684h1.487l-.968-1.13-.519.446zm-15.037 0l-.52-.445-.965 1.13h1.485v-.685zm5.383-6.296l.52.444.164-.192v-.252h-.684zm0-14.372h.684v-.253l-.164-.192-.52.445zm28.219-6.288v-.684h-.657l-.026.657.683.027zm25.919 0l.683-.027-.026-.657h-.657v.684zm-26.438 13.04l-.683-.027-.092 2.287 1.331-1.862-.556-.398zm5.901-8.252v-.684h-.352l-.205.287.557.397zm3.599 0h.684v-.684h-.684v.684zm0 15.872l.509.456.175-.195v-.261h-.684zm-5.652 6.296l-.509-.457-1.025 1.141h1.534v-.684zm19.261 0v.684h1.534l-1.025-1.141-.509.457zm-5.653-6.296h-.684v.261l.175.195.509-.456zm0-15.872v-.684h-.684v.684h.684zm3.599 0l.557-.397-.205-.287h-.352v.684zm5.901 8.252l-.556.398 1.33 1.861-.09-2.286-.684.027zm10.22-5.545l-.414.544.414-.544zm-1.2-1.968l.682.051-.682-.051zm7.598 4.039l.173-.662-.173.662zm.198.052l.173-.662-.173.662zm7.992 3.016l-.406.551.406-.55zm.692 12.977l.473.494h.001l-.474-.494zm-17.144-.3l.336-.597-.366-.206-.349.233.379.57zm-3.878 2.58h-.684v1.276l1.062-.707-.378-.57zm0-13.368l.614-.3-1.298-2.66v2.96h.684zm5.499 6.4l-.376.571.376-.572zm12.171.171l-.68-.078.68.078zm-.946-1.701l.371-.575-.371.575zm-.158-.103l.382-.568h-.001l-.381.568zm-5.6-1.612l-.144.669.144-.669zm-8.025-3.024l-.398.556.398-.556zm-3.734-6.028l.684-.027-.684.027zm2.507-7.232l.494.473-.494-.473zm14.509-.523l.364-.579-.003-.001-.361.58zm.623.392l-.365.58.342.214.353-.195-.33-.599zm4.183-2.309h.684V.834l-1.015.56.331.598zm0 11.29l-.52.444 1.204 1.406v-1.85h-.684zM25.912 5.876l2.771-2.686-.952-.982-2.77 2.686.951.982zm-9.645-3.378c3.398 0 6.285 1.127 8.702 3.387l.934-1c-2.676-2.502-5.9-3.756-9.636-3.756v1.369zM5.991 6.806c2.878-2.88 6.292-4.308 10.276-4.308V1.129c-4.354 0-8.114 1.578-11.244 4.71l.968.967zM1.684 17.09c0-3.987 1.427-7.403 4.307-10.284l-.968-.967C1.893 8.971.316 12.733.316 17.09h1.368zm3.922 9.564c-2.615-2.568-3.922-5.74-3.922-9.564H.316c0 4.175 1.444 7.704 4.332 10.54l.958-.976zm9.745 3.856c-3.897 0-7.129-1.288-9.745-3.857l-.958.977c2.886 2.834 6.47 4.248 10.703 4.248V30.51zm9.454-2.74c-3.06 1.834-6.209 2.74-9.454 2.74v1.368c3.515 0 6.904-.985 10.157-2.934l-.703-1.174zm4.161 2.929L25.6 27.836l-.887 1.042 3.367 2.863.886-1.042zm-1.127-8.15v8.671h1.368v-8.67H27.84zm5.726-6.872l-5.56 6.424 1.035.896 5.56-6.425-1.035-.895zM14.94 16.809h19.142V15.44H14.94v1.368zm6.709 5.264l-6.218-6.424-.983.951 6.218 6.425.983-.952zm.192 1.948v-1.472h-1.368v1.472h1.369zm-5.386 2.818c2.129 0 3.89-.793 5.226-2.377l-1.047-.882c-1.063 1.261-2.435 1.89-4.179 1.89v1.369zM9.427 16.87c0 3.15.534 5.635 1.705 7.349 1.203 1.76 3.016 2.619 5.323 2.619V25.47c-1.923 0-3.282-.689-4.194-2.023-.944-1.381-1.466-3.54-1.466-6.577H9.427zm1.707-7.725c-1.163 1.915-1.707 4.513-1.707 7.725h1.368c0-3.083.526-5.398 1.508-7.014l-1.169-.71zM16.21 6.17c-2.18 0-3.89 1.026-5.075 2.977l1.17.71c.959-1.58 2.244-2.319 3.905-2.319V6.169zm12.556 8.114C25 8.978 20.822 6.169 16.209 6.169v1.368c3.983 0 7.8 2.408 11.44 7.538l1.116-.792zM27.523 2.699v11.98h1.368V2.699h-1.368zm13.618 1.023h17.693V2.354H41.141v1.368zm4.066 3.842l-3.509-4.923-1.114.794 3.508 4.923 1.114-.794zm-6.082 16.377l6.161-15.73-1.273-.5-6.162 15.731 1.274.499zm-4.482 6.445l4.406-6.303-1.121-.784-4.406 6.303 1.12.784zm13.415-1.076H34.082v1.368h13.976V29.31zm-5.046-4.415l4.516 5.532 1.06-.866-4.516-5.532-1.06.866zm.555-2.522l-.669 1.857 1.287.464.67-1.857-1.288-.464zm9.26-.452H44.21v1.368h8.616V21.92zm1.321 2.306l-.68-1.857-1.284.47.68 1.857 1.284-.47zm-5.34 6.235l5.197-5.532-.998-.936-5.195 5.532.997.936zm18.357-1.152H48.31v1.368h18.855V29.31zm-6.166-5.162l5.657 6.303 1.018-.914-5.657-6.302-1.018.913zM54.614 8.214l6.259 15.73 1.27-.505-6.258-15.73-1.271.505zm3.667-5.579L54.696 7.56l1.106.805 3.585-4.923-1.106-.806zM51.766 17.91l-2.818-7.29-1.276.494 2.818 7.29 1.276-.494zm-6.098.93h5.46v-1.367h-5.46v1.368zm2-8.206l-2.643 7.29 1.286.466 2.642-7.29-1.286-.466zm18.99-7.113l5.699 6.3 1.014-.919-5.698-6.299-1.015.918zm19.323-1.143H67.165v1.368h18.816V2.378zm2.838-.024l-2.844.024.012 1.368 2.844-.024-.012-1.368zm3.724.423l-3.64-.419-.156 1.36 3.64.418.156-1.359zm4.895 2.852c-1.242-1.47-2.862-2.416-4.83-2.84l-.288 1.337c1.691.364 3.038 1.16 4.072 2.386l1.046-.883zm1.869 5.127c0-1.936-.626-3.654-1.87-5.127l-1.045.883c1.034 1.224 1.547 2.629 1.547 4.244h1.368zm-7.299 7.16c2.32-.468 4.148-1.276 5.401-2.48 1.273-1.224 1.898-2.804 1.898-4.68h-1.368c0 1.543-.5 2.754-1.478 3.694-.997.958-2.545 1.686-4.723 2.125l.27 1.341zm3.944 1.783c-.897-1.354-2.178-2.378-3.808-3.081l-.542 1.256c1.418.612 2.477 1.475 3.21 2.58l1.14-.755zm2.418 6.21c-.741-2.792-1.539-4.884-2.418-6.21l-1.14.756c.751 1.133 1.504 3.047 2.235 5.805l1.323-.35zm3.596 3.61l-3.765-3.909-.985.95 3.764 3.909.986-.95zm-11.503 1.16h11.01V29.31h-11.01v1.368zm-3.17-9.033c.73 1.779 1.566 4.606 2.505 8.508l1.33-.32c-.942-3.916-1.797-6.827-2.57-8.708l-1.265.52zm-2.632-1.313c.783 0 1.36.133 1.775.354.4.213.68.523.856.956l1.268-.514a3.172 3.172 0 00-1.48-1.65c-.675-.358-1.494-.514-2.418-.514v1.368zm-3.775 0h3.776v-1.368h-3.776v1.368zm.684 3.402V19.65h-1.368v4.086h1.368zm5.52 5.799l-5.698-6.26-1.012.922 5.698 6.258 1.012-.92zm-19.925 1.144h19.419V29.31H67.165v1.368zm5.194-7.403l-5.7 6.259 1.012.92 5.7-6.258-1.012-.921zM72.18 9.36v14.374h1.368V9.361H72.18zm9.39 4.97V8.112h-1.368v6.217h1.368zm4.4-.685h-5.084v1.368h5.084v-1.368zm1.564-.039l-1.58.04.033 1.367 1.58-.04-.033-1.367zm1.907-2.257c0 .896-.198 1.44-.474 1.755-.262.298-.69.502-1.416.502v1.368c.989 0 1.848-.287 2.445-.969.582-.664.813-1.59.813-2.656h-1.368zm-.58-2.037c.302.238.58.813.58 2.037h1.368c0-1.329-.284-2.47-1.104-3.113l-.845 1.076zm-2.869-.515c.79 0 1.423.053 1.912.151.497.1.794.236.956.364l.845-1.076c-.4-.314-.932-.508-1.532-.629-.608-.122-1.338-.179-2.18-.179v1.369zm-5.106 0h5.106V7.429h-5.106v1.369zm27.647-5.076h17.692V2.354h-17.692v1.368zm4.064 3.842L109.09 2.64l-1.114.794 3.507 4.923 1.114-.794zm-6.08 16.377l6.16-15.73-1.274-.5-6.16 15.731 1.274.499zm-4.483 6.445l4.407-6.303-1.122-.784-4.407 6.303 1.122.784zm13.416-1.076h-13.977v1.368h13.977V29.31zm-5.046-4.415l4.516 5.532 1.06-.866-4.517-5.532-1.059.866zm.555-2.522l-.669 1.857 1.287.464.669-1.857-1.287-.464zm9.259-.452h-8.616v1.368h8.616V21.92zm1.322 2.306l-.679-1.857-1.285.47.679 1.857 1.285-.47zm-5.339 6.235l5.195-5.532-.997-.936-5.196 5.532.998.936zm18.354-1.152h-18.853v1.368h18.853V29.31zm-6.164-5.162l5.655 6.303 1.018-.914-5.655-6.302-1.018.913zm-6.387-15.934l6.26 15.73 1.271-.505-6.259-15.73-1.272.505zm3.668-5.579l-3.585 4.924 1.106.805 3.585-4.923-1.106-.806zm-6.515 15.275l-2.817-7.29-1.276.494 2.817 7.29 1.276-.494zm-6.097.93h5.459v-1.367h-5.459v1.368zm1.999-8.206l-2.642 7.29 1.286.466 2.642-7.29-1.286-.466zm33.802-8.28H135.78v1.368h13.081V2.354zm9.715 14.88l-9.136-14.56-1.159.728 9.137 14.56 1.158-.727zm-1.263-7.908v8.272h1.368V9.326h-1.368zm-5.231-5.843l5.396 6.288 1.038-.89-5.395-6.288-1.039.89zm15.555-1.129h-15.036v1.368h15.036V2.354zm-4.862 7.417l5.382-6.288-1.039-.89-5.383 6.288 1.04.89zm.164 20.223V9.326h-1.368v20.668h1.368zm-8.274.684h7.59V29.31h-7.59v1.368zm-9.829-15.648l9.243 15.318 1.171-.707-9.243-15.317-1.171.707zm1.269 8.668v-9.02h-1.368v9.02h1.368zm5.231 5.85l-5.395-6.296-1.039.89 5.395 6.297 1.039-.89zm-15.556 1.13h15.037V29.31H135.78v1.368zm4.863-7.425l-5.383 6.296 1.04.89 5.383-6.297-1.04-.889zm-.164-13.927v14.372h1.368V9.326h-1.368zm-5.219-5.843l5.384 6.288 1.039-.89-5.383-6.288-1.04.89zm34.122.239h25.919V2.354h-25.919v1.368zm.165 12.384l.519-13.04-1.367-.055-.519 13.04 1.367.055zm4.66-8.677l-5.9 8.252 1.112.795 5.901-8.252-1.113-.795zm4.156-.287h-3.599V8.51h3.599V7.142zm.684 16.556V7.826h-1.368v15.872h1.368zm-5.827 6.753l5.652-6.297-1.018-.913-5.652 6.296 1.018.914zm18.752-1.141h-19.261v1.368h19.261V29.31zm-6.162-5.155l5.653 6.296 1.018-.914-5.653-6.296-1.018.913zm-.175-16.329v15.872h1.368V7.826h-1.368zm4.283-.684h-3.599V8.51h3.599V7.142zm6.457 8.539l-5.9-8.252-1.113.795 5.901 8.252 1.112-.795zm-1.758-12.616l.519 13.04 1.367-.054-.519-13.04-1.367.054zm11.837 6.924c-.408-.311-.642-.518-.78-.72-.113-.164-.176-.344-.153-.653l-1.364-.103c-.045.598.087 1.093.389 1.532.277.402.677.726 1.079 1.032l.829-1.088zm6.156 1.953c-1.368-.358-2.756-.722-3.9-1.07a20.565 20.565 0 01-1.471-.498c-.415-.164-.668-.296-.785-.385l-.829 1.088c.278.212.682.4 1.114.57.447.176.985.355 1.573.534 1.175.357 2.591.728 3.952 1.085l.346-1.324zm.198.052l-.198-.052-.346 1.324.198.051.346-1.323zm8.225 3.128c-.886-.653-2.27-1.252-3.727-1.77-1.475-.525-3.095-.99-4.498-1.358l-.347 1.323c1.384.363 2.962.817 4.387 1.324 1.443.513 2.661 1.057 3.373 1.582l.812-1.101zm3.651 6.617c0-3.556-1.988-5.393-3.651-6.618l-.812 1.102c1.533 1.13 3.095 2.61 3.095 5.516h1.368zm-2.891 7.404c1.944-1.864 2.891-4.358 2.891-7.404h-1.368c0 2.741-.84 4.854-2.47 6.417l.947.987zm-7.678 2.761c3.151 0 5.735-.9 7.677-2.76l-.946-.988c-1.635 1.566-3.852 2.38-6.731 2.38v1.368zm-10.276-2.96c3.475 1.96 6.903 2.96 10.276 2.96v-1.368c-3.093 0-6.292-.915-9.604-2.784l-.672 1.192zm-3.164 2.554l3.879-2.58-.758-1.14-3.878 2.58.757 1.14zm-1.062-13.937v13.367h1.368V17.561h-1.368zm6.559 5.828c-2.222-1.462-3.976-3.497-5.261-6.128l-1.229.6c1.382 2.832 3.293 5.063 5.738 6.671l.752-1.143zm7.35 2.19c-2.685 0-5.13-.73-7.35-2.19l-.752 1.143c2.446 1.609 5.153 2.415 8.102 2.415v-1.368zm3.765-1.525c-.053.46-.269.8-.795 1.06-.579.286-1.523.465-2.97.465v1.368c1.516 0 2.714-.18 3.576-.607.915-.452 1.439-1.179 1.548-2.13l-1.359-.156zm-.637-1.049c.27.175.423.283.524.421.075.103.154.27.113.628l1.359.156c.076-.656-.065-1.177-.366-1.59-.275-.377-.653-.612-.888-.764l-.742 1.15zm-.168-.11c.057.039.115.076.168.11l.742-1.149-.147-.096-.763 1.136zm-5.363-1.51c1.973.425 3.217.734 4.029.977.816.244 1.15.41 1.335.534l.761-1.137c-.354-.237-.843-.45-1.704-.708-.865-.259-2.151-.576-4.133-1.003l-.288 1.337zm-8.279-3.137c1.673 1.198 4.282 2.274 8.279 3.137l.288-1.338c-3.911-.844-6.314-1.868-7.771-2.911l-.796 1.112zm-4.019-6.558c.053 1.398.393 2.58 1.077 3.656.675 1.063 1.661 1.984 2.942 2.902l.797-1.112c-1.209-.866-2.04-1.666-2.585-2.524-.536-.845-.819-1.785-.864-2.975l-1.367.053zm2.696-7.73c-1.812 1.892-2.821 4.49-2.696 7.73l1.367-.053c-.112-2.905.786-5.132 2.317-6.732l-.988-.946zm7.401-2.83c-3.077 0-5.574.92-7.401 2.83l.988.945c1.515-1.583 3.623-2.407 6.413-2.407V1.129zm7.963 2.199c-2.358-1.47-5.019-2.2-7.963-2.2v1.369c2.707 0 5.113.667 7.24 1.992l.723-1.161zm.626.393l-.623-.392-.728 1.158.622.392.729-1.158zm3.488-2.328l-4.183 2.308.661 1.198 4.183-2.309-.661-1.197zm1.015 11.888V1.992h-1.368v11.29h1.368zm-13.175-6.164c4.154 0 8.143 2.138 11.971 6.608l1.04-.89c-3.99-4.659-8.327-7.086-13.011-7.086v1.368zm-3.314 1.498c.036-.478.236-.803.684-1.047.502-.274 1.337-.451 2.63-.451V5.75c-1.372 0-2.482.18-3.285.617-.857.467-1.323 1.208-1.393 2.147l1.364.102z" fill="#CCA64C"/></svg>