<svg width="22" height="21" fill="none" xmlns="http://www.w3.org/2000/svg"><path d="M11 0c5.8 0 10.5 4.7 10.5 10.5S16.8 21 11 21a10.451 10.451 0 01-5.281-1.423L.504 21l1.42-5.216A10.45 10.45 0 01.5 10.5C.5 4.7 5.2 0 11 0zM7.422 5.565l-.21.008a1.009 1.009 0 00-.391.105 1.357 1.357 0 00-.309.24c-.126.118-.197.221-.274.321a2.867 2.867 0 00-.594 1.762c.002.514.136 1.015.346 1.484.43.947 1.137 1.95 2.069 2.879.225.223.445.448.682.657a9.919 9.919 0 004.033 2.148l.596.092c.194.01.388-.004.584-.014a2.09 2.09 0 00.874-.242 5.07 5.07 0 00.402-.232s.046-.029.132-.094a2.41 2.41 0 00.346-.302c.087-.09.163-.197.22-.318.083-.17.165-.497.198-.77.025-.207.018-.32.015-.39-.004-.113-.098-.23-.2-.28l-.61-.273s-.914-.398-1.473-.652a.521.521 0 00-.185-.043.506.506 0 00-.397.133c-.005-.002-.075.058-.834.978a.368.368 0 01-.387.136 1.509 1.509 0 01-.2-.07l-.265-.112a6.326 6.326 0 01-1.654-1.054c-.132-.115-.255-.241-.38-.363a6.611 6.611 0 01-1.072-1.331l-.062-.1a.969.969 0 01-.107-.215c-.04-.155.064-.279.064-.279s.255-.279.374-.43a4.35 4.35 0 00.276-.392c.124-.2.163-.404.098-.563a87.403 87.403 0 00-.912-2.143c-.062-.14-.245-.241-.412-.261a4.66 4.66 0 00-.17-.017 3.552 3.552 0 00-.423.004l.21-.008.002.001z" fill="#fff"/></svg>