<svg width="1280" height="175" fill="none" xmlns="http://www.w3.org/2000/svg"><g opacity=".7" fill="#fff"><mask id="a"><path fill-rule="evenodd" clip-rule="evenodd" d="M1185.84 40.75c-.41 5.352 2.31 7.98 7.09 11.625 4.67 3.559 21.66 8.007 37.78 12.23l1.17.306c16.46 4.313 37.76 10.864 47.2 17.816 9.44 6.951 19.92 16.745 19.92 35.831 0 17.086-5.28 30.689-15.83 40.81-10.57 10.12-24.74 15.181-42.55 15.181-19.09 0-38.66-5.654-58.7-16.961l-22.91 15.238V93.883c7.87 16.13 18.7 28.728 32.48 37.793 13.78 9.064 28.99 13.596 45.63 13.596 17.5 0 25.29-4.247 26.25-12.582.69-5.996-2.6-8.12-5.59-10.05l-.93-.608c-3.18-2.133-9.72-4.478-33.07-9.517-23.36-5.039-38.15-11.242-47.4-17.859-14.7-10.542-21.46-20.32-22.05-35.603-.7-18.148 4.94-32.396 14.81-42.708C1179 6.035 1192.6.88 1209.93.88c16.68 0 31.65 4.126 44.89 12.378l3.68 2.313 24.71-13.634v66.671c-23.09-26.96-47.68-40.441-73.77-40.441-15.73 0-22.98 4.217-23.6 12.584zM142.68 6.107l-16.364 15.866C111.278 7.91 93.228.879 72.166.879 47.543.879 26.36 9.756 8.618 27.51-9.13 45.264-18 66.46-18 91.098c0 23.621 8.124 43.409 24.373 59.365 16.248 15.955 36.373 23.933 60.382 23.933 19.962 0 39.268-5.586 57.91-16.757l19.881 16.91v-51.21l32.833-37.94H64.325l36.722 37.94v8.693c-7.08 8.401-16.335 12.602-27.77 12.602-24.985 0-37.472-18.277-37.472-54.83 0-18.587 3.163-33.095 9.5-43.522 6.33-10.427 15.172-15.64 26.519-15.64 25.38 0 48.993 15.405 70.856 46.216V6.108zm180.879 2.004H219.068l20.719 29.076-36.386 92.9-26.021 37.222h82.538l-26.672-32.672 3.95-10.968h50.884l4.012 10.968-30.684 32.672h111.351l-33.407-37.222-36.963-92.9 21.17-29.076zm-62.151 46.24l16.638 43.048h-32.243l15.605-43.049zm145.009-8.897l-33.658-37.2h111.125l16.796-.143 21.493 2.474c10.802 2.33 19.562 7.476 26.284 15.437 6.722 7.96 10.086 17.183 10.086 27.668 0 20.194-13.29 32.97-39.865 38.329 9.003 3.884 15.914 9.458 20.723 16.721 4.815 7.262 9.393 19.09 13.741 35.482l22.233 23.087h-65.024c-5.555-23.087-10.548-40.032-14.984-50.837-2.771-6.841-9.197-10.261-19.277-10.261h-22.299v24.135l33.652 36.963H372.759l33.658-36.963V45.454zM657.919 167.31h-82.544l26.027-37.222 36.38-92.9L617.069 8.11h104.485l-21.17 29.076 36.968 92.9 33.402 37.222H659.409l30.684-32.672-4.012-10.968h-50.884l-3.95 10.968 26.672 32.672zM453.791 38.086V74.8h30.027l9.334-.232c10.134 0 15.203-5.79 15.203-17.368 0-7.537-1.658-12.607-4.975-15.21-3.316-2.604-9.795-3.905-19.431-3.905h-30.158zM659.409 54.35l16.638 43.05h-32.243l15.605-43.05zM777.99 8.11h77.252l53.957 85.992V45.246L877.334 8.11h88.799l-31.787 37.135v122.063h-44.827l-54.59-90.46v53.273l31.865 37.187H777.99l31.793-37.187V45.246L777.99 8.11zm351.52 0H976.436l-3.066 77.016 34.85-48.735h21.25v93.731l-33.377 37.187h113.757l-33.39-37.187V36.391h21.26l34.85 48.735-3.06-77.015z"/></mask><path d="M1192.93 52.375l-3.64 4.772v.002l3.64-4.774zm-7.09-11.625l5.98.451v-.004l-5.98-.447zm44.87 23.855l1.52-5.804-1.52 5.804zm1.17.306l1.52-5.804-1.52 5.804zm47.2 17.816l-3.56 4.83 3.56-4.83zm4.09 76.641l4.15 4.332v-.001l-4.15-4.331zm-101.25-1.78l2.94-5.226-3.2-1.809-3.07 2.039 3.33 4.996zm-22.91 15.238h-6v11.198l9.32-6.203-3.32-4.995zm0-78.943l5.39-2.632-11.39-23.34v25.972h6zm32.48 37.793l-3.3 5.012 3.3-5.012zm71.88 1.014l-5.96-.685v.002l5.96.683zm-5.59-10.05l-3.25 5.04 3.25-5.04zm-.93-.608l3.35-4.982-.01-.003-3.34 4.985zm-33.07-9.517l-1.27 5.865 1.27-5.865zm-47.4-17.859l-3.49 4.876v.003l3.49-4.879zm-22.05-35.603l6-.23v-.001l-6 .23zm14.81-42.708l4.33 4.149-4.33-4.149zm85.68-3.088l3.2-5.079-.01-.007-.01-.007-3.18 5.093zm3.68 2.313l-3.19 5.08 2.99 1.883 3.1-1.71-2.9-5.253zm24.71-13.634h6V-8.228l-8.9 4.91 2.9 5.254zm0 66.671l-4.56 3.903 10.56 12.33V68.606h-6zM126.316 21.973l-4.098 4.382 4.173 3.902 4.102-3.977-4.177-4.307zM142.68 6.107h6V-8.067L138.504 1.8l4.176 4.308zM8.617 27.511l4.244 4.242v-.001L8.617 27.51zM6.373 150.463l4.204-4.281v-.001l-4.204 4.282zm118.292 7.176l3.888-4.571-3.279-2.789-3.693 2.213 3.084 5.147zm19.881 16.91l-3.887 4.57 9.887 8.411v-12.981h-6zm0-51.21l-4.537-3.926-1.463 1.69v2.236h6zm32.833-37.94l4.537 3.925 8.59-9.926h-13.127v6zm-113.054 0v-6H50.167l9.846 10.172 4.312-4.173zm36.722 37.94h6v-2.428l-1.689-1.745-4.311 4.173zm0 8.693l4.587 3.867 1.413-1.676v-2.191h-6zm-55.743-85.75l5.128 3.116.001-.002-5.129-3.114zm97.376 30.576l-4.893 3.472 10.893 15.352V76.858h-6zm76.388-68.747v-6h-11.642l6.756 9.482 4.886-3.482zm104.491 0l4.85 3.531 6.94-9.531h-11.79v6zm-83.772 29.076l5.587 2.188 1.185-3.025-1.885-2.645-4.887 3.482zm-36.386 92.9l4.917 3.437.409-.585.261-.664-5.587-2.188zm-26.021 37.222l-4.918-3.438-6.598 9.438h11.516v-6zm82.538 0v6h12.644l-7.996-9.795-4.648 3.795zm-26.672-32.672l-5.645-2.033-1.151 3.196 2.148 2.632 4.648-3.795zm3.95-10.968v-6h-4.217l-1.428 3.967 5.645 2.033zm50.884 0l5.635-2.061-1.441-3.939h-4.194v6zm4.012 10.968l4.374 4.108 2.532-2.696-1.271-3.473-5.635 2.061zm-30.684 32.672l-4.374-4.108-9.492 10.108h13.866v-6zm111.351 0v6h13.447l-8.982-10.008-4.465 4.008zm-33.407-37.222l-5.575 2.218.395.993.715.796 4.465-4.007zm-36.963-92.9l-4.851-3.532-1.947 2.675 1.223 3.075 5.575-2.218zm-24.343 60.212v6h8.751l-3.155-8.163-5.596 2.163zM261.408 54.35l5.596-2.163-5.776-14.946-5.461 15.065 5.641 2.044zM245.803 97.4l-5.641-2.045-2.916 8.044h8.557v-6zM372.759 8.253v-6h-13.52l9.071 10.025 4.449-4.025zm33.658 37.2h6v-2.311l-1.551-1.714-4.449 4.025zm77.467-37.2v6h.051l-.051-6zm16.796-.143l.686-5.96-.367-.043-.37.003.051 6zm21.493 2.474l1.265-5.865-.287-.062-.292-.034-.686 5.96zm26.284 15.437l4.584-3.871-4.584 3.87zm-29.779 65.997l-1.186-5.882-18.802 3.792 17.611 7.599 2.377-5.51zm20.723 16.721l-5.002 3.312.001.003 5.001-3.315zm13.741 35.482l-5.8 1.538.399 1.504 1.079 1.12 4.322-4.162zm-42.791 23.087l-5.833 1.403 1.106 4.597h4.727v-6zm-14.984-50.837l-5.56 2.253.005.013.005.013 5.55-2.279zm-41.576-10.261v-6h-6v6h6zm0 24.135h-6v2.322l1.564 1.717 4.436-4.039zm33.652 36.963v6h13.577l-9.14-10.04-4.437 4.04zm-114.684 0l-4.436-4.04-9.142 10.04h13.578v-6zm33.658-36.963l4.436 4.04 1.564-1.717v-2.323h-6zm251.502 36.963v6h12.644l-7.996-9.795-4.648 3.795zm-56.517-37.222l4.917 3.438.409-.585.261-.666-5.587-2.187zm36.38-92.9l5.587 2.188 1.184-3.024-1.884-2.645-4.887 3.48zM617.069 8.11v-6h-11.641l6.754 9.481 4.887-3.481zm104.485 0l4.85 3.531 6.94-9.531h-11.79v6zm-21.17 29.076l-4.851-3.532-1.947 2.676 1.223 3.074 5.575-2.218zm36.968 92.9l-5.574 2.218.395.993.714.796 4.465-4.007zm33.402 37.222v6H784.2l-8.981-10.008-4.465 4.008zm-111.345 0l-4.374-4.108-9.493 10.108h13.867v-6zm30.684-32.672l4.374 4.108 2.531-2.696-1.27-3.473-5.635 2.061zm-4.012-10.968l5.634-2.061-1.44-3.939h-4.194v6zm-50.884 0v-6h-4.217l-1.428 3.967 5.645 2.033zm-3.95 10.968l-5.645-2.033-1.151 3.196 2.148 2.632 4.648-3.795zM453.791 74.801h-6v6h6v-6zm0-36.715v-6h-6v6h6zM483.818 74.8v6h.075l.075-.002-.15-5.998zm9.334-.232v-6h-.074l-.075.001.149 5.999zM503.38 41.99l-3.704 4.72 3.704-4.72zM676.047 97.4v5.999h8.751l-3.155-8.163-5.596 2.163zm-16.638-43.05l5.596-2.163-5.776-14.946-5.461 15.065 5.641 2.044zM643.804 97.4l-5.641-2.045-2.916 8.044h8.557v-6zM855.242 8.11l5.082-3.188-1.763-2.811h-3.319v6zm-77.252 0v-6h-13.035l8.477 9.903 4.558-3.902zm131.209 85.992l-5.082 3.19 11.082 17.661v-20.85h-6zm0-48.856h6v-2.222l-1.446-1.685-4.554 3.907zM877.334 8.11v-6h-13.055l8.502 9.907 4.553-3.907zm88.799 0l4.558 3.902 8.476-9.902h-13.034v6zm-31.787 37.135l-4.558-3.902-1.442 1.684v2.218h6zm0 122.063v6h6v-6h-6zm-44.827 0l-5.137 3.1 1.75 2.9h3.387v-6zm-54.59-90.46l5.137-3.1-11.137-18.455V76.85h6zm0 53.273h-6v2.219l1.444 1.685 4.556-3.904zm31.865 37.187v6h13.043l-8.486-9.905-4.557 3.905zm-88.804 0l-4.56-3.899-8.464 9.899h13.024v-6zm31.793-37.187l4.56 3.899 1.44-1.684v-2.215h-6zm0-84.876h6v-2.218l-1.442-1.684-4.558 3.902zM976.436 8.11v-6h-5.765l-.23 5.761 5.995.239zm153.074 0l5.99-.238-.23-5.762h-5.76v6zM973.37 85.126l-5.995-.239-.799 20.055 11.674-16.326-4.88-3.49zm34.85-48.735v-6h-3.09l-1.79 2.51 4.88 3.49zm21.25 0h6v-6h-6v6zm0 93.731l4.47 4.008 1.53-1.71v-2.298h-6zm-33.377 37.187l-4.465-4.008-8.983 10.008h13.448v-6zm113.757 0v6h13.45l-8.99-10.009-4.46 4.009zm-33.39-37.187h-6v2.298l1.54 1.711 4.46-4.009zm0-93.731v-6h-6v6h6zm21.26 0l4.88-3.49-1.8-2.51h-3.08v6zm34.85 48.735l-4.88 3.49 11.67 16.324-.8-20.052-5.99.238zm63.99-37.523c-2.42-1.845-3.56-2.9-4.18-3.8-.39-.576-.67-1.193-.56-2.602l-11.97-.902c-.29 3.943.59 7.316 2.64 10.303 1.84 2.665 4.44 4.745 6.8 6.545l7.27-9.544zm35.67 11.198c-8.09-2.12-16.25-4.257-22.96-6.3-3.35-1.021-6.25-1.99-8.54-2.892-2.43-.955-3.7-1.654-4.17-2.008l-7.27 9.548c1.87 1.425 4.48 2.617 7.05 3.628 2.71 1.066 5.94 2.14 9.44 3.204 6.98 2.126 15.38 4.326 23.41 6.428l3.04-11.608zm1.17.306l-1.17-.306-3.04 11.608 1.17.306 3.04-11.608zm49.24 18.79c-5.48-4.039-13.89-7.653-22.52-10.72-8.78-3.126-18.41-5.89-26.72-8.07l-3.04 11.608c8.14 2.135 17.4 4.801 25.74 7.767 8.5 3.024 15.47 6.16 19.42 9.075l7.12-9.66zm22.36 40.661c0-21.938-12.35-33.29-22.36-40.662l-7.12 9.662c8.87 6.531 17.48 14.765 17.48 31h12zm-17.68 45.141c11.94-11.445 17.68-26.72 17.68-45.141h-12c0 15.751-4.81 27.681-13.99 36.479l8.31 8.662zm-46.7 16.85c19 0 34.79-5.435 46.7-16.849l-8.3-8.665c-9.22 8.828-21.79 13.514-38.4 13.514v12zm-61.65-17.735c20.76 11.71 41.33 17.735 61.65 17.735v-12c-17.87 0-36.43-5.283-55.76-16.187l-5.89 10.452zm-16.64 15.007l22.91-15.238-6.65-9.991-22.9 15.238 6.64 9.991zm-9.32-83.938v78.943h12V93.883h-12zm41.78 32.78c-12.81-8.422-22.94-20.16-30.39-35.412l-10.78 5.264c8.3 17.009 19.81 30.465 34.57 40.173l6.6-10.025zm42.33 12.609c-15.48 0-29.54-4.195-42.33-12.609l-6.6 10.025c14.77 9.715 31.13 14.584 48.93 14.584v-12zm20.29-7.265c-.23 2.015-1.07 3.462-3.62 4.721-3.01 1.489-8.22 2.544-16.67 2.544v12c9.05 0 16.49-1.067 21.99-3.786 5.96-2.948 9.49-7.792 10.22-14.113l-11.92-1.366zm-2.88-4.327c1.64 1.064 2.23 1.519 2.57 1.994.12.159.21.329.27.591.07.283.14.822.04 1.74l11.92 1.37c.49-4.304-.43-7.884-2.53-10.768-1.87-2.568-4.42-4.14-5.76-5.006l-6.51 10.079zm-1.02-.666c.35.237.71.468 1.02.666l6.51-10.079c-.32-.209-.59-.382-.84-.551l-6.69 9.964zm-31-8.634c11.64 2.511 18.93 4.318 23.65 5.731 4.76 1.425 6.51 2.339 7.35 2.906l6.68-9.97c-2.34-1.566-5.45-2.891-10.59-4.432-5.18-1.552-12.84-3.437-24.56-5.965l-2.53 11.73zm-49.62-18.845c10.19 7.296 25.89 13.725 49.62 18.845l2.53-11.73c-22.97-4.958-36.87-10.934-45.16-16.873l-6.99 9.758zm-24.55-40.253c.32 8.557 2.42 15.883 6.66 22.567 4.18 6.577 10.22 12.184 17.89 17.683l6.99-9.752c-7.03-5.043-11.72-9.596-14.75-14.364-2.96-4.66-4.54-9.865-4.8-16.593l-11.99.46zm16.46-47.085c-11.1 11.596-17.22 27.474-16.46 47.087l11.99-.462c-.64-16.683 4.5-29.302 13.14-38.328l-8.67-8.297zm45.13-17.318c-18.59 0-33.89 5.577-45.13 17.318l8.67 8.297c8.5-8.882 20.39-13.615 36.46-13.615v-12zM1258 8.164c-14.27-8.886-30.34-13.285-48.07-13.285v12c15.64 0 29.49 3.853 41.72 11.47L1258 8.164zm3.7 2.328l-3.68-2.314-6.39 10.158 3.68 2.313 6.39-10.157zm18.61-13.81l-24.71 13.635 5.8 10.507 24.71-13.635-5.8-10.506zm8.9 71.925V1.937h-12v66.67h12zm-79.77-34.441c23.77 0 46.83 12.21 69.21 38.344l9.11-7.805c-23.79-27.788-49.9-42.54-78.32-42.54v12zm-17.62 7.031c.16-2.16.96-3.487 3.02-4.608 2.54-1.382 7.08-2.423 14.6-2.423v-12c-8.22 0-15.17 1.067-20.34 3.885-5.65 3.08-8.78 8.046-9.25 14.252l11.97.894zM130.493 26.28l16.364-15.865-8.353-8.616-16.364 15.866 8.353 8.615zM72.167 6.88c19.578 0 36.152 6.48 50.051 19.476l8.196-8.765C114.236 2.463 94.711-5.121 72.167-5.121v12zM12.86 31.752C29.502 15.099 49.169 6.879 72.167 6.879v-12c-26.251 0-48.951 9.534-67.794 28.39l8.488 8.483zM-12 91.098c0-23.014 8.215-42.694 24.86-59.346L4.375 23.27C-14.476 42.124-24 64.837-24 91.099h12zm22.577 55.083C-4.476 131.4-12 113.176-12 91.098h-12c0 25.164 8.724 46.515 26.17 63.646l8.407-8.563zm56.178 22.215c-22.53 0-41.117-7.425-56.178-22.214l-8.408 8.562c17.436 17.121 39.1 25.652 64.586 25.652v-12zm54.826-15.904c-17.796 10.664-36.046 15.904-54.826 15.904v12c21.144 0 41.505-5.932 60.994-17.611l-6.168-10.293zm26.853 17.487l-19.881-16.911-7.775 9.141 19.881 16.91 7.775-9.14zm-9.888-46.64v51.21h12v-51.21h-12zm34.296-41.867l-32.833 37.941 9.074 7.852 32.833-37.94-9.074-7.853zM64.325 91.398h113.054v-12H64.325v12zm41.033 27.768l-36.722-37.94-8.622 8.345 36.721 37.941 8.623-8.346zm1.689 12.866v-8.693h-12v8.693h12zm-33.77 18.602c13.121 0 24.085-4.92 32.357-14.735l-9.175-7.733c-5.889 6.986-13.434 10.468-23.182 10.468v12zm-43.472-60.83c0 18.773 3.173 33.913 10.413 44.508 7.52 11.005 18.882 16.322 33.06 16.322v-12c-10.809 0-18.183-3.822-23.152-11.093-5.25-7.682-8.32-19.956-8.32-37.736h-12zm10.372-46.638c-7.132 11.737-10.372 27.485-10.372 46.639h12c0-18.023 3.086-31.289 8.627-40.407l-10.255-6.232zm31.647-18.525c-13.627 0-24.328 6.47-31.649 18.528l10.258 6.227c5.34-8.797 12.323-12.755 21.39-12.755v-12zm75.75 48.745c-22.411-31.583-47.606-48.745-75.75-48.745v12c22.615 0 44.647 13.65 65.963 43.69l9.787-6.945zM136.68 6.107v70.751h12V6.108h-12zm82.388 8.004h104.491v-12H219.068v12zm25.606 19.594L223.955 4.629l-9.773 6.964 20.719 29.076 9.773-6.964zm-35.686 98.57l36.386-92.9L234.201 35l-36.387 92.899 11.174 4.377zm-26.691 38.471l26.021-37.222-9.835-6.875-26.021 37.222 9.835 6.875zm77.621-9.437H177.38v12h82.538v-12zm-31.32-22.877l26.672 32.671 9.296-7.589-26.672-32.671-9.296 7.589zm2.953-16.796l-3.95 10.968 11.29 4.066 3.95-10.968-11.29-4.066zm56.529-3.967h-50.884v12h50.884v-12zm9.647 14.907l-4.012-10.968-11.27 4.122 4.013 10.969 11.269-4.123zm-31.946 38.84l30.685-32.671-8.747-8.215-30.685 32.671 8.747 8.215zm106.978-10.107H261.408v12h111.351v-12zm-37.872-27.215l33.406 37.222 8.931-8.015-33.407-37.222-8.93 8.015zm-38.073-94.689l36.963 92.9 11.15-4.437-36.963-92.9-11.15 4.437zM318.708 4.58l-21.17 29.076 9.702 7.063 21.169-29.076-9.701-7.063zm-35.066 90.657l-16.638-43.049-11.193 4.326 16.638 43.05 11.193-4.327zm-37.839 8.163h32.243v-12h-32.243v12zm9.964-51.093l-15.605 43.049 11.282 4.09 15.605-43.05-11.282-4.09zM368.31 12.279l33.658 37.2 8.898-8.05-33.657-37.2-8.899 8.05zM483.884 2.254H372.759v12h111.125v-12zm16.745-.143l-16.796.143.102 12 16.796-.143-.102-12zm22.23 2.513L501.366 2.15l-1.372 11.922 21.493 2.473 1.372-11.921zm30.182 17.527c-7.631-9.037-17.587-14.84-29.603-17.431l-2.531 11.73c9.59 2.068 17.152 6.559 22.966 13.443l9.168-7.742zm11.502 31.539c0-11.894-3.86-22.49-11.502-31.54l-9.168 7.743c5.802 6.871 8.67 14.72 8.67 23.797h12zM519.864 97.9c13.911-2.805 25.102-7.689 32.87-15.157 7.94-7.634 11.809-17.496 11.809-29.053h-12c0 8.637-2.776 15.26-8.126 20.402-5.52 5.308-14.261 9.491-26.925 12.045l2.372 11.763zm24.54 7.527c-5.532-8.354-13.417-14.632-23.349-18.917l-4.754 11.018c8.073 3.483 14.011 8.353 18.098 14.524l10.005-6.625zm14.537 37.257c-4.387-16.542-9.164-29.152-14.539-37.26l-10.002 6.631c4.255 6.418 8.635 17.464 12.942 33.705l11.599-3.076zm20.755 20.463l-22.233-23.087-8.643 8.324 22.233 23.087 8.643-8.324zm-69.345 10.162h65.024v-12h-65.024v12zm-20.534-54.558c4.253 10.359 9.16 26.934 14.701 49.961l11.667-2.807c-5.57-23.145-10.648-40.462-15.267-51.712l-11.101 4.558zm-13.727-6.54c4.415 0 7.484.757 9.56 1.862 1.952 1.039 3.291 2.517 4.157 4.652l11.121-4.506c-1.906-4.705-5.165-8.358-9.64-10.739-4.35-2.316-9.534-3.269-15.198-3.269v12zm-22.299 0h22.299v-12h-22.299v12zm6 18.135v-24.135h-12v24.135h12zm32.089 32.923l-33.652-36.962-8.873 8.078 33.651 36.963 8.874-8.079zm-119.121 10.04h114.684v-12H372.759v12zm29.222-47.003l-33.658 36.963 8.873 8.079 33.657-36.962-8.872-8.08zm-1.564-80.852v84.892h12V45.454h-12zM575.375 173.31h82.544v-12h-82.544v12zm21.11-46.661l-26.027 37.222 9.834 6.877 26.027-37.222-9.834-6.877zM632.195 35l-36.38 92.9 11.174 4.375 36.38-92.9L632.195 35zm-20.013-23.407l20.713 29.076 9.774-6.962L621.956 4.63l-9.774 6.962zm109.372-9.481H617.069v12h104.485v-12zm-16.32 38.608l21.17-29.077-9.701-7.063-21.17 29.076 9.701 7.063zm37.693 87.149l-36.968-92.9-11.15 4.437 36.969 92.9 11.149-4.437zm32.292 35.433l-33.401-37.222-8.931 8.015 33.401 37.222 8.931-8.015zm-115.81 10.008h111.345v-12H659.409v12zm26.31-42.779l-30.684 32.671 8.747 8.215 30.685-32.671-8.748-8.215zm-5.273-4.8l4.012 10.969 11.27-4.123-4.013-10.968-11.269 4.122zm-45.249 3.939h50.884v-12h-50.884v12zm1.695 7.001l3.95-10.968-11.29-4.066-3.95 10.968 11.29 4.066zm25.675 26.844l-26.672-32.671-9.296 7.589 26.672 32.671 9.296-7.589zM459.791 74.801V38.086h-12V74.8h12zm24.027-6h-30.027v12h30.027v-12zm9.185-.23l-9.334.232.299 11.996 9.334-.232-.299-11.996zm9.352-11.37c0 5.046-1.121 7.71-2.316 9.074-1.06 1.211-2.968 2.294-6.887 2.294v12c6.215 0 11.909-1.813 15.916-6.39 3.874-4.425 5.287-10.445 5.287-16.978h-12zm-2.679-10.49c1.049.822 2.679 3.414 2.679 10.49h12c0-7.998-1.685-15.547-7.27-19.93l-7.409 9.44zm-15.727-2.625c4.584 0 8.186.312 10.903.858 2.789.56 4.206 1.281 4.824 1.766l7.409-9.44c-2.699-2.118-6.18-3.35-9.869-4.09-3.76-.756-8.216-1.094-13.267-1.094v12zm-30.158 0h30.158v-12h-30.158v12zm227.852 51.15l-16.638-43.049-11.193 4.326 16.638 43.05 11.193-4.327zm-37.839 8.163h32.243v-12h-32.243v12zm9.964-51.093l-15.605 43.049 11.282 4.09 15.604-43.05-11.281-4.09zM855.242 2.11H777.99v12h77.252v-12zm59.04 88.802l-53.958-85.99L850.16 11.3l53.957 85.991 10.165-6.378zm-11.083-45.667v48.856h12V45.246h-12zm-30.418-33.228l31.865 37.135 9.107-7.814-31.865-37.135-9.107 7.814zm93.352-9.907h-88.799v12h88.799v-12zm-27.229 47.037l31.787-37.135-9.116-7.804-31.787 37.135 9.116 7.803zm1.442 118.161V45.246h-12v122.063h12zm-50.827 6h44.827v-12h-44.827v12zm-59.727-93.36l54.59 90.46 10.274-6.2-54.59-90.46-10.274 6.2zm11.137 50.173V76.849h-12v53.273h12zm30.422 33.282l-31.866-37.186-9.112 7.808 31.865 37.187 9.113-7.809zm-93.361 9.905h88.804v-12H777.99v12zm27.232-47.086L773.43 163.41l9.121 7.798 31.792-37.187-9.121-7.798zm-1.439-80.977v84.876h12V45.246h-12zm-30.351-33.233l31.793 37.135 9.116-7.804-31.793-37.135-9.116 7.804zm203.004 2.098h153.074v-12H976.436v12zm2.929 71.254l3.067-77.015-11.991-.478-3.066 77.015 11.99.478zM1003.34 32.9l-34.851 48.735 9.761 6.98 34.85-48.736-9.76-6.98zm26.13-2.51h-21.25v12h21.25v-12zm6 99.731v-93.73h-12v93.731h12zm-34.91 41.195l33.38-37.187-8.93-8.016-33.382 37.187 8.932 8.016zm109.29-10.008H996.093v12h113.757v-12zM1072 134.131l33.39 37.186 8.92-8.017-33.38-37.186-8.93 8.017zm-1.54-97.74v93.731h12V36.391h-12zm27.26-6h-21.26v12h21.26v-12zm39.73 51.245l-34.85-48.735-9.76 6.98 34.85 48.735 9.76-6.98zm-13.94-73.287l3.06 77.015 11.99-.476-3.06-77.015-11.99.476z" mask="url(#a)"/></g></svg>