<svg width="22" height="23" fill="none" xmlns="http://www.w3.org/2000/svg"><path d="M11 .75C5.066.75.25 5.566.25 11.5S5.066 22.25 11 22.25s10.75-4.816 10.75-10.75S16.934.75 11 .75zm4.988 7.31c-.161 1.698-.86 5.826-1.215 7.73-.15.806-.451 1.074-.73 1.107-.624.053-1.097-.409-1.7-.807-.945-.623-1.483-1.01-2.396-1.612-1.065-.699-.377-1.086.236-1.71.161-.16 2.913-2.666 2.967-2.891a.214.214 0 00-.054-.194c-.064-.053-.15-.032-.226-.021-.096.021-1.601 1.021-4.536 2.999-.43.29-.817.44-1.161.43-.387-.01-1.118-.215-1.666-.398-.677-.215-1.204-.333-1.161-.71.021-.193.29-.386.795-.59 3.14-1.366 5.225-2.269 6.268-2.699 2.988-1.247 3.6-1.462 4.01-1.462.085 0 .29.022.418.13.108.085.14.204.151.29-.01.064.01.258 0 .408z" fill="#fff"/></svg>