<svg width="20" height="21" fill="none" xmlns="http://www.w3.org/2000/svg"><path fill-rule="evenodd" clip-rule="evenodd" d="M14.626 1.488a22.883 22.883 0 00-9.657 0l-.343.073a5.012 5.012 0 00-2.373 1.24A4.758 4.758 0 00.903 5.06a18.401 18.401 0 000 9.356c.214.819.65 1.568 1.261 2.172a4.996 4.996 0 002.22 1.266l.47 2.712a.482.482 0 00.111.234.507.507 0 00.485.164.512.512 0 00.238-.114l2.76-2.387a22.876 22.876 0 006.178-.476l.344-.073a5.012 5.012 0 002.373-1.24 4.758 4.758 0 001.35-2.257c.806-3.07.806-6.286 0-9.356a4.758 4.758 0 00-1.35-2.258 5.011 5.011 0 00-2.374-1.24l-.343-.074zM5.822 4.979a.855.855 0 00-.543.104h-.014c-.38.215-.72.486-1.012.804-.243.27-.374.544-.408.808-.02.156-.006.315.041.464l.018.01c.273.774.629 1.52 1.064 2.221a13.07 13.07 0 002.051 2.711l.025.033.038.028.023.026.029.024c.845.777 1.79 1.447 2.811 1.993 1.168.614 1.876.904 2.302 1.025v.006c.124.037.237.054.352.054.362-.026.705-.168.974-.404a3.88 3.88 0 00.823-.981v-.007c.203-.371.134-.721-.159-.959a12.255 12.255 0 00-1.901-1.318c-.453-.238-.913-.094-1.099.146l-.397.485c-.204.24-.574.207-.574.207l-.01.006c-2.76-.681-3.497-3.382-3.497-3.382s-.035-.368.22-.555l.498-.387c.239-.188.405-.631.149-1.069a11.55 11.55 0 00-1.362-1.837.761.761 0 00-.444-.257l.002.001zm4.663-1.174a.515.515 0 00-.357.143.48.48 0 000 .691.515.515 0 00.357.143c1.279 0 2.34.404 3.18 1.177.432.423.768.924.989 1.474.22.55.322 1.137.296 1.725a.474.474 0 00.133.351.516.516 0 00.715.029.482.482 0 00.162-.34 5.079 5.079 0 00-.365-2.12 5.302 5.302 0 00-1.216-1.81l-.01-.01c-1.043-.962-2.362-1.453-3.884-1.453zm-.034 1.606a.514.514 0 00-.357.143.48.48 0 000 .691.514.514 0 00.357.143h.017c.922.064 1.593.36 2.063.848.482.502.732 1.127.712 1.898a.48.48 0 00.14.349.514.514 0 00.715.016.481.481 0 00.156-.342c.024-1.013-.313-1.888-.982-2.585V6.57c-.684-.71-1.623-1.084-2.754-1.158l-.017-.002-.05.001zm-.02 1.637a.521.521 0 00-.375.117.491.491 0 00-.173.344.474.474 0 00.135.359.505.505 0 00.361.155c.423.021.692.144.862.31.171.165.298.432.322.85a.476.476 0 00.16.348.509.509 0 00.372.13.519.519 0 00.354-.168.485.485 0 00.122-.363c-.032-.586-.222-1.104-.611-1.485-.391-.38-.924-.566-1.528-.597z" fill="#fff"/></svg>